<svg width="37" height="37" viewBox="0 0 37 37" fill="none" xmlns="http://www.w3.org/2000/svg">
<path d="M18.5 0C17.6035 0 16.874 0.72945 16.874 1.62598C16.874 1.65481 16.8748 1.68343 16.8763 1.7119L7.77636 5.48113C7.47855 5.15044 7.04727 4.94225 6.56822 4.94225C5.6717 4.94225 4.94225 5.6717 4.94225 6.56822C4.94225 7.46475 5.6717 8.1942 6.56822 8.1942C7.46475 8.1942 8.1942 7.46475 8.1942 6.56822C8.1942 6.53939 8.1934 6.51077 8.19196 6.4823L17.2919 2.71307C17.5897 3.04375 18.021 3.25195 18.5 3.25195C18.979 3.25195 19.4103 3.04375 19.7081 2.71307L28.808 6.4823C28.8065 6.51084 28.8058 6.53939 28.8058 6.56822C28.8058 7.46475 29.5352 8.1942 30.4318 8.1942C31.3283 8.1942 32.0578 7.46475 32.0578 6.56822C32.0578 5.6717 31.3283 4.94225 30.4318 4.94225C29.9527 4.94225 29.5214 5.15044 29.2236 5.48113L20.1237 1.7119C20.1253 1.68335 20.126 1.65481 20.126 1.62598C20.126 0.72945 19.3965 0 18.5 0ZM18.5 2.16797C18.2011 2.16797 17.958 1.92487 17.958 1.62598C17.958 1.32709 18.2011 1.08398 18.5 1.08398C18.7989 1.08398 19.042 1.32709 19.042 1.62598C19.042 1.92487 18.7989 2.16797 18.5 2.16797ZM30.4317 7.11029C30.1328 7.11029 29.8897 6.86719 29.8897 6.56829C29.8897 6.2694 30.1328 6.0263 30.4317 6.0263C30.7306 6.0263 30.9737 6.2694 30.9737 6.56829C30.9737 6.86719 30.7306 7.11029 30.4317 7.11029ZM6.5683 7.11029C6.2694 7.11029 6.0263 6.86719 6.0263 6.56829C6.0263 6.2694 6.2694 6.0263 6.5683 6.0263C6.86719 6.0263 7.11029 6.2694 7.11029 6.56829C7.11029 6.86719 6.86711 7.11029 6.5683 7.11029ZM18.5 6.50391C11.8853 6.50391 6.50391 11.8853 6.50391 18.5C6.50391 25.1147 11.8853 30.4961 18.5 30.4961C20.8449 30.4961 23.1165 29.8194 25.0692 28.5391C25.3196 28.375 25.3894 28.0389 25.2253 27.7886C25.0612 27.5382 24.725 27.4685 24.4748 27.6325C23.8625 28.034 23.2156 28.3702 22.5434 28.6384C23.0296 28.1445 23.4826 27.5568 23.894 26.8812C24.1501 26.4606 24.3847 26.0141 24.5969 25.5459H26.835C26.5661 25.8621 26.2776 26.1654 25.9698 26.4546C25.7516 26.6596 25.7409 27.0026 25.9459 27.2207C26.1508 27.439 26.4939 27.4497 26.712 27.2446C29.1168 24.9856 30.4961 21.7983 30.4961 18.5C30.4961 11.8853 25.1147 6.50391 18.5 6.50391ZM19.042 11.4541V7.62684C20.508 7.83829 21.8857 8.90464 22.9682 10.6826C23.119 10.9302 23.2617 11.1875 23.396 11.4541H19.042ZM13.604 11.4541C13.7383 11.1876 13.881 10.9302 14.0318 10.6826C15.1143 8.90457 16.492 7.83829 17.958 7.62684V11.4541H13.604ZM24.597 11.4541C24.3848 10.9859 24.1502 10.5395 23.8941 10.1189C23.4839 9.44534 23.0324 8.85911 22.548 8.36619C24.2157 9.03486 25.6821 10.1043 26.8262 11.454H24.597V11.4541ZM10.1738 11.4541C11.3178 10.1043 12.7842 9.03486 14.452 8.36626C13.9675 8.85919 13.516 9.44541 13.1059 10.1189C12.8498 10.5395 12.6151 10.986 12.4029 11.4542H10.1738V11.4541ZM25.0342 12.5381H27.6357C28.6658 14.1112 29.3008 15.9654 29.3988 17.958H26.0083C25.9553 16.0284 25.6197 14.1788 25.0342 12.5381ZM19.042 12.5381H23.8781C24.5062 14.1488 24.8674 16.0056 24.9239 17.958H19.042V12.5381ZM13.1219 12.5381H17.958V17.958H12.0761C12.1326 16.0056 12.4938 14.1488 13.1219 12.5381ZM9.36425 12.5381H11.9658C11.3802 14.1788 11.0447 16.0284 10.9917 17.958H7.60119C7.69918 15.9654 8.33425 14.1112 9.36425 12.5381ZM26.0083 19.042H29.3991C29.3049 21.0019 28.7003 22.8561 27.6469 24.4619H25.0342C25.6197 22.8212 25.9553 20.9716 26.0083 19.042ZM19.042 19.042H24.9239C24.8675 20.9944 24.5063 22.8512 23.8781 24.4619H19.042V23.1973C19.042 22.8979 18.7994 22.6553 18.5 22.6553C18.2006 22.6553 17.958 22.8979 17.958 23.1973V24.4619H13.1219C12.4938 22.8512 12.1326 20.9944 12.0761 19.042H17.958V21.0293C17.958 21.3287 18.2006 21.5713 18.5 21.5713C18.7994 21.5713 19.042 21.3287 19.042 21.0293V19.042ZM7.60119 19.042H10.9917C11.0447 20.9716 11.3803 22.8212 11.9658 24.4619H9.36425C8.33425 22.8888 7.69918 21.0346 7.60119 19.042ZM19.042 25.5459H23.396C23.2617 25.8124 23.119 26.0698 22.9682 26.3174C21.8857 28.0954 20.508 29.1617 19.042 29.3732V25.5459ZM13.604 25.5459H17.958V29.3732C16.492 29.1617 15.1143 28.0954 14.0318 26.3174C13.881 26.0698 13.7383 25.8124 13.604 25.5459ZM10.1738 25.5459H12.403C12.6152 26.0141 12.8498 26.4605 13.1059 26.8812C13.5161 27.5547 13.9676 28.1409 14.452 28.6338C12.7842 27.9651 11.3178 26.8957 10.1738 25.5459ZM31.6001 8.84734C31.5309 8.84734 31.4607 8.86063 31.3929 8.88874C31.1164 9.00329 30.985 9.32031 31.0996 9.59687L34.2869 17.2919C33.9562 17.5897 33.748 18.021 33.748 18.5C33.748 18.979 33.9562 19.4103 34.2869 19.7081L30.5177 28.808C30.4892 28.8065 30.4606 28.8058 30.4318 28.8058C29.5352 28.8058 28.8058 29.5353 28.8058 30.4318C28.8058 31.3283 29.5352 32.0578 30.4318 32.0578C31.3283 32.0578 32.0578 31.3283 32.0578 30.4318C32.0578 29.9527 31.8496 29.5214 31.5189 29.2236L35.2881 20.1237C35.3166 20.1253 35.3452 20.126 35.374 20.126C36.2705 20.126 37 19.3965 37 18.5C37 17.6035 36.2705 16.874 35.374 16.874C35.3452 16.874 35.3166 16.8748 35.2881 16.8763L32.101 9.18207C32.0146 8.97337 31.8128 8.84734 31.6001 8.84734ZM35.374 19.042C35.0751 19.042 34.832 18.7989 34.832 18.5C34.832 18.2011 35.0751 17.958 35.374 17.958C35.6729 17.958 35.916 18.2011 35.916 18.5C35.916 18.7989 35.6729 19.042 35.374 19.042ZM30.4317 30.9737C30.1328 30.9737 29.8897 30.7306 29.8897 30.4317C29.8897 30.1328 30.1328 29.8897 30.4317 29.8897C30.7306 29.8897 30.9737 30.1328 30.9737 30.4317C30.9737 30.7306 30.7306 30.9737 30.4317 30.9737ZM5.3999 8.84734C5.18723 8.84734 4.98546 8.9733 4.89896 9.18207L1.7119 16.8763C1.68336 16.8747 1.65481 16.874 1.62598 16.874C0.729449 16.874 0 17.6035 0 18.5C0 19.3965 0.729449 20.126 1.62598 20.126C1.65481 20.126 1.68343 20.1252 1.7119 20.1237L5.48113 29.2236C5.15044 29.5214 4.94225 29.9527 4.94225 30.4318C4.94225 31.3283 5.6717 32.0578 6.56822 32.0578C7.04727 32.0578 7.47855 31.8496 7.77636 31.5189L16.8763 35.2881C16.8747 35.3166 16.874 35.3452 16.874 35.374C16.874 36.2706 17.6035 37 18.5 37C19.3965 37 20.126 36.2706 20.126 35.374C20.126 35.3452 20.1252 35.3166 20.1237 35.2881L27.8286 32.0966C28.1052 31.9821 28.2366 31.6651 28.122 31.3885C28.0074 31.1119 27.6903 30.9804 27.4138 31.0952L19.7081 34.2869C19.4103 33.9563 18.979 33.748 18.5 33.748C18.021 33.748 17.5897 33.9562 17.2919 34.2869L8.19196 30.5177C8.19348 30.4892 8.1942 30.4606 8.1942 30.4318C8.1942 29.5353 7.46475 28.8058 6.56822 28.8058C6.53939 28.8058 6.51077 28.8066 6.4823 28.808L2.71307 19.7081C3.04376 19.4103 3.25195 18.979 3.25195 18.5C3.25195 18.021 3.04376 17.5897 2.71307 17.2919L5.90034 9.59687C6.01496 9.32031 5.88365 9.00329 5.60702 8.88874C5.53923 8.86063 5.46899 8.84734 5.3999 8.84734ZM1.62598 19.042C1.32709 19.042 1.08398 18.7989 1.08398 18.5C1.08398 18.2011 1.32709 17.958 1.62598 17.958C1.92487 17.958 2.16797 18.2011 2.16797 18.5C2.16797 18.7989 1.92487 19.042 1.62598 19.042ZM6.5683 30.9737C6.2694 30.9737 6.0263 30.7306 6.0263 30.4317C6.0263 30.1328 6.2694 29.8897 6.5683 29.8897C6.86719 29.8897 7.11029 30.1328 7.11029 30.4317C7.11029 30.7306 6.86711 30.9737 6.5683 30.9737ZM18.5 35.916C18.2011 35.916 17.958 35.6729 17.958 35.374C17.958 35.0751 18.2011 34.832 18.5 34.832C18.7989 34.832 19.042 35.0751 19.042 35.374C19.042 35.6729 18.7989 35.916 18.5 35.916Z" fill="black"/>
</svg>
