<svg width="34" height="34" viewBox="0 0 34 34" fill="none" xmlns="http://www.w3.org/2000/svg">
<path d="M11.688 19.125C12.1433 19.125 12.5752 19.0278 12.9668 18.8562C13.2074 18.1321 13.6377 17.4941 14.1987 17C13.3126 16.2207 12.75 15.0822 12.75 13.8125C12.75 13.523 12.7797 13.2398 12.835 12.9662C12.4785 12.8286 12.0928 12.75 11.6875 12.75C9.92694 12.75 8.5 14.1769 8.5 15.9375C8.5 17.6975 9.92694 19.125 11.687 19.125H11.688C11.6875 19.125 11.6875 19.125 11.688 19.125Z" fill="black"/>
<path d="M12.75 13.8125C12.75 13.523 12.7797 13.2398 12.835 12.9662C12.4785 12.8286 12.0928 12.75 11.6875 12.75C9.92694 12.75 8.5 14.1769 8.5 15.9375H13.3264C12.9614 15.3122 12.75 14.5876 12.75 13.8125Z" fill="black"/>
<path d="M12.8387 19.3428C12.4812 19.2042 12.0939 19.125 11.688 19.125C11.688 19.125 11.688 19.125 11.6875 19.125C11.687 19.125 11.6875 19.125 11.687 19.125C9.92694 19.125 8.5 20.5519 8.5 22.3125V23.375H12.75V20.1875C12.75 19.898 12.7829 19.6159 12.8387 19.3428Z" fill="black"/>
<path d="M12.75 19.3104C12.4174 19.1925 12.0604 19.125 11.6875 19.125C9.92694 19.125 8.5 20.5519 8.5 22.3125V23.375H10.625V22.3125C10.625 20.9254 11.5127 19.7482 12.75 19.3104Z" fill="black"/>
<path d="M10.625 15.9375C10.625 14.5504 11.5127 13.3732 12.75 12.9354C12.4174 12.8175 12.0604 12.75 11.6875 12.75C9.92694 12.75 8.5 14.1769 8.5 15.9375C8.5 17.6981 9.92694 19.125 11.6875 19.125C12.0604 19.125 12.4174 19.0575 12.75 18.9396C11.5127 18.5018 10.625 17.3246 10.625 15.9375Z" fill="black"/>
<path d="M12.75 12.9354C12.4174 12.8175 12.0604 12.75 11.6875 12.75C9.92694 12.75 8.5 14.1769 8.5 15.9375H10.625C10.625 14.5504 11.5127 13.3732 12.75 12.9354Z" fill="black"/>
<path d="M17 6.375C15.8265 6.375 14.875 5.42353 14.875 4.25C14.875 3.07647 15.8265 2.125 17 2.125C18.1735 2.125 19.125 3.07647 19.125 4.25C19.125 5.42353 18.1735 6.375 17 6.375Z" fill="black"/>
<path d="M15.9375 4.25C15.9375 3.26081 16.6164 2.43684 17.5312 2.19991C17.3607 2.15581 17.1843 2.125 17 2.125C15.8265 2.125 14.875 3.07647 14.875 4.25C14.875 5.42353 15.8265 6.375 17 6.375C17.1843 6.375 17.3607 6.34419 17.5312 6.30009C16.6164 6.06263 15.9375 5.23919 15.9375 4.25Z" fill="black"/>
<path d="M17 31.875C15.8265 31.875 14.875 30.9235 14.875 29.75C14.875 28.5765 15.8265 27.625 17 27.625C18.1735 27.625 19.125 28.5765 19.125 29.75C19.125 30.9235 18.1735 31.875 17 31.875Z" fill="black"/>
<path d="M28.0647 5.9351C27.2348 5.10529 25.8892 5.10529 25.0594 5.9351C24.2296 6.76492 24.2296 8.11058 25.0594 8.94039C25.8892 9.77021 27.2348 9.77021 28.0647 8.94039C28.895 8.11005 28.895 6.76492 28.0647 5.9351Z" fill="black"/>
<path d="M8.93965 25.0601C8.10984 24.2303 6.76418 24.2303 5.93437 25.0601C5.10456 25.8899 5.10456 27.2356 5.93437 28.0654C6.76418 28.8952 8.10984 28.8952 8.93965 28.0654C9.77 27.235 9.77 25.8899 8.93965 25.0601Z" fill="black"/>
<path d="M27.625 17C27.625 15.8265 28.5765 14.875 29.75 14.875C30.9235 14.875 31.875 15.8265 31.875 17C31.875 18.1735 30.9235 19.125 29.75 19.125C28.5765 19.125 27.625 18.1735 27.625 17Z" fill="black"/>
<path d="M2.125 17C2.125 15.8265 3.07647 14.875 4.25 14.875C5.42353 14.875 6.375 15.8265 6.375 17C6.375 18.1735 5.42353 19.125 4.25 19.125C3.07647 19.125 2.125 18.1735 2.125 17Z" fill="black"/>
<path d="M28.0647 25.0601C27.2348 24.2303 25.8892 24.2303 25.0594 25.0601C24.2296 25.8899 24.2296 27.2356 25.0594 28.0654C25.8892 28.8952 27.2348 28.8952 28.0647 28.0654C28.895 27.235 28.895 25.8899 28.0647 25.0601Z" fill="black"/>
<path d="M20.1878 4.25011C20.1878 4.38451 20.1767 4.51679 20.1602 4.64695C21.4097 4.96676 22.5853 5.47198 23.6569 6.13073C23.8024 5.80773 24.0022 5.50864 24.2529 5.24514C22.9912 4.46473 21.594 3.88461 20.1055 3.54248C20.1581 3.77039 20.1878 4.00679 20.1878 4.25011Z" fill="black"/>
<path d="M29.7503 20.1876C29.6159 20.1876 29.4836 20.1764 29.3535 20.1599C29.0336 21.4094 28.5284 22.5846 27.8691 23.6566C28.1921 23.8022 28.4912 24.0019 28.7547 24.2527C29.5351 22.991 30.1153 21.5938 30.4574 20.1052C30.23 20.1578 29.9936 20.1876 29.7503 20.1876Z" fill="black"/>
<path d="M4.25055 13.8127C4.38496 13.8127 4.51724 13.8238 4.6474 13.8403C4.96721 12.5908 5.47243 11.4157 6.13171 10.3436C5.80871 10.1981 5.50962 9.99831 5.24612 9.74756C4.46571 11.0093 3.88558 12.4065 3.54346 13.895C3.77083 13.8424 4.00724 13.8127 4.25055 13.8127Z" fill="black"/>
<path d="M9.74707 5.24514C9.99782 5.50864 10.1976 5.80773 10.3431 6.13073C11.4147 5.47198 12.5903 4.96676 13.8398 4.64695C13.8234 4.51679 13.8122 4.38451 13.8122 4.25011C13.8122 4.00679 13.8419 3.77039 13.894 3.54248C12.4054 3.88461 11.0088 4.46526 9.74707 5.24514Z" fill="black"/>
<path d="M6.13126 23.6571C5.47251 22.5851 4.96676 21.4099 4.64695 20.1604C4.51679 20.1764 4.38451 20.1875 4.25011 20.1875C4.00679 20.1875 3.77039 20.1578 3.54248 20.1057C3.88461 21.5943 4.46526 22.9915 5.24514 24.2532C5.50917 24.0024 5.80773 23.8021 6.13126 23.6571Z" fill="black"/>
<path d="M27.8691 10.3431C28.5279 11.4152 29.0336 12.5903 29.3535 13.8398C29.4836 13.8239 29.6159 13.8127 29.7503 13.8127C29.9936 13.8127 30.23 13.8425 30.4579 13.8945C30.1158 12.406 29.5351 11.0088 28.7553 9.74707C28.4912 9.99782 28.1927 10.1981 27.8691 10.3431Z" fill="black"/>
<path d="M24.2529 28.755C24.0021 28.4915 23.8024 28.1924 23.6568 27.8694C22.5853 28.5281 21.4096 29.0334 20.1601 29.3532C20.1766 29.4833 20.1878 29.6156 20.1878 29.75C20.1878 29.9933 20.158 30.2297 20.106 30.4576C21.5945 30.1155 22.9912 29.5349 24.2529 28.755Z" fill="black"/>
<path d="M13.8122 29.75C13.8122 29.6156 13.8234 29.4833 13.8398 29.3532C12.5903 29.0334 11.4147 28.5281 10.3431 27.8694C10.1976 28.1924 9.99782 28.4915 9.74707 28.755C11.0088 29.5354 12.406 30.1155 13.8945 30.4576C13.8419 30.2297 13.8122 29.9933 13.8122 29.75Z" fill="black"/>
<path d="M8.93965 5.9351C8.10984 5.10529 6.76418 5.10529 5.93437 5.9351C5.10456 6.76492 5.10456 8.11058 5.93437 8.94039C6.76418 9.77021 8.10984 9.77021 8.93965 8.94039C9.77 8.11005 9.77 6.76492 8.93965 5.9351Z" fill="black"/>
<path d="M3.1875 17C3.1875 16.0108 3.86644 15.1868 4.78125 14.9499C4.61072 14.9058 4.43434 14.875 4.25 14.875C3.07647 14.875 2.125 15.8265 2.125 17C2.125 18.1735 3.07647 19.125 4.25 19.125C4.43434 19.125 4.61072 19.0942 4.78125 19.0501C3.86644 18.8126 3.1875 17.9892 3.1875 17Z" fill="black"/>
<path d="M15.9375 29.75C15.9375 28.7608 16.6164 27.9368 17.5312 27.6999C17.3607 27.6558 17.1843 27.625 17 27.625C15.8265 27.625 14.875 28.5765 14.875 29.75C14.875 30.9235 15.8265 31.875 17 31.875C17.1843 31.875 17.3607 31.8442 17.5312 31.8001C16.6164 31.5626 15.9375 30.7392 15.9375 29.75Z" fill="black"/>
<path d="M28.6875 17C28.6875 16.0108 29.3664 15.1868 30.2812 14.9499C30.1107 14.9058 29.9343 14.875 29.75 14.875C28.5765 14.875 27.625 15.8265 27.625 17C27.625 18.1735 28.5765 19.125 29.75 19.125C29.9343 19.125 30.1107 19.0942 30.2812 19.0501C29.3664 18.8126 28.6875 17.9892 28.6875 17Z" fill="black"/>
<path d="M6.375 7.4375C6.375 6.44831 7.05394 5.62434 7.96875 5.38741C7.79822 5.34331 7.62184 5.3125 7.4375 5.3125C6.26397 5.3125 5.3125 6.26397 5.3125 7.4375C5.3125 8.61103 6.26397 9.5625 7.4375 9.5625C7.62184 9.5625 7.79822 9.53169 7.96875 9.48759C7.05394 9.25012 6.375 8.42669 6.375 7.4375Z" fill="black"/>
<path d="M25.5 7.4375C25.5 6.44831 26.1789 5.62434 27.0938 5.38741C26.9232 5.34331 26.7468 5.3125 26.5625 5.3125C25.389 5.3125 24.4375 6.26397 24.4375 7.4375C24.4375 8.61103 25.389 9.5625 26.5625 9.5625C26.7468 9.5625 26.9232 9.53169 27.0938 9.48759C26.1789 9.25012 25.5 8.42669 25.5 7.4375Z" fill="black"/>
<path d="M25.5 26.5625C25.5 25.5733 26.1789 24.7493 27.0938 24.5124C26.9232 24.4683 26.7468 24.4375 26.5625 24.4375C25.389 24.4375 24.4375 25.389 24.4375 26.5625C24.4375 27.736 25.389 28.6875 26.5625 28.6875C26.7468 28.6875 26.9232 28.6567 27.0938 28.6126C26.1789 28.3751 25.5 27.5517 25.5 26.5625Z" fill="black"/>
<path d="M6.375 26.5625C6.375 25.5733 7.05394 24.7493 7.96875 24.5124C7.79822 24.4683 7.62184 24.4375 7.4375 24.4375C6.26397 24.4375 5.3125 25.389 5.3125 26.5625C5.3125 27.736 6.26397 28.6875 7.4375 28.6875C7.62184 28.6875 7.79822 28.6567 7.96875 28.6126C7.05394 28.3751 6.375 27.5517 6.375 26.5625Z" fill="black"/>
<path d="M20.1875 23.375H13.8125V20.1875C13.8125 18.4269 15.2394 17 17 17C18.7606 17 20.1875 18.4269 20.1875 20.1875V23.375Z" fill="black"/>
<path d="M18.0625 17.1854C17.7299 17.0675 17.3729 17 17 17C15.2394 17 13.8125 18.4269 13.8125 20.1875V23.375H15.9375V20.1875C15.9375 18.8004 16.8252 17.6232 18.0625 17.1854Z" fill="black"/>
<path d="M22.3124 19.125C21.9059 19.125 21.5187 19.2042 21.1611 19.3428C21.2169 19.6159 21.2499 19.898 21.2499 20.1875V23.375H25.4999V22.3125C25.4999 20.5519 24.0729 19.125 22.3124 19.125Z" fill="black"/>
<path d="M22.3124 19.125C21.9059 19.125 21.5187 19.2042 21.1611 19.3428C21.2169 19.6159 21.2499 19.898 21.2499 20.1875V22.3125C21.2499 20.9254 22.1376 19.7482 23.3749 19.3104C23.0423 19.1925 22.6853 19.125 22.3124 19.125Z" fill="black"/>
<path d="M22.312 12.75C21.9066 12.75 21.5209 12.8286 21.1645 12.9662C21.2197 13.2398 21.2495 13.523 21.2495 13.8125C21.2495 15.0822 20.6869 16.2207 19.8013 17C20.3623 17.4935 20.7921 18.1321 21.0332 18.8562C21.4248 19.0283 21.8567 19.125 22.312 19.125C24.0725 19.125 25.4995 17.6981 25.4995 15.9375C25.4995 14.1769 24.0725 12.75 22.312 12.75Z" fill="black"/>
<path d="M21.2497 13.8125C21.2497 14.5876 21.0383 15.3122 20.6733 15.9375H25.4997C25.4997 14.1769 24.0728 12.75 22.3122 12.75C21.9069 12.75 21.5212 12.8286 21.1647 12.9662C21.22 13.2398 21.2497 13.523 21.2497 13.8125Z" fill="black"/>
<path d="M21.2495 15.9375C21.2495 14.5504 22.1372 13.3732 23.3745 12.9354C23.0419 12.8175 22.6849 12.75 22.312 12.75C21.9066 12.75 21.5209 12.8286 21.1645 12.9662C21.2197 13.2398 21.2495 13.523 21.2495 13.8125C21.2495 15.0822 20.6869 16.2207 19.8013 17C20.3623 17.4935 20.7921 18.1321 21.0332 18.8562C21.4248 19.0283 21.8567 19.125 22.312 19.125C22.6849 19.125 23.0419 19.0575 23.3745 18.9396C22.1372 18.5018 21.2495 17.3246 21.2495 15.9375Z" fill="black"/>
<path d="M22.3122 12.75C21.9069 12.75 21.5212 12.8286 21.1647 12.9662C21.22 13.2398 21.2497 13.523 21.2497 13.8125C21.2497 14.5876 21.0383 15.3122 20.6733 15.9375H21.2497C21.2497 14.5504 22.1375 13.3732 23.3747 12.9354C23.0422 12.8175 22.6852 12.75 22.3122 12.75Z" fill="black"/>
<path d="M17 17C15.2394 17 13.8125 15.5731 13.8125 13.8125C13.8125 12.0519 15.2394 10.625 17 10.625C18.7606 10.625 20.1875 12.0519 20.1875 13.8125C20.1875 15.5731 18.7606 17 17 17Z" fill="black"/>
<path d="M13.8125 13.8125C13.8125 12.0519 15.2394 10.625 17 10.625C18.7606 10.625 20.1875 12.0519 20.1875 13.8125H13.8125Z" fill="black"/>
<path d="M15.9375 13.8125C15.9375 12.4254 16.8252 11.2482 18.0625 10.8104C17.7299 10.6925 17.3729 10.625 17 10.625C15.2394 10.625 13.8125 12.0519 13.8125 13.8125C13.8125 15.5731 15.2394 17 17 17C17.3729 17 17.7299 16.9325 18.0625 16.8146C16.8252 16.3768 15.9375 15.1996 15.9375 13.8125Z" fill="black"/>
<path d="M18.0625 10.8104C17.7299 10.6925 17.3729 10.625 17 10.625C15.2394 10.625 13.8125 12.0519 13.8125 13.8125H15.9375C15.9375 12.4254 16.8252 11.2482 18.0625 10.8104Z" fill="black"/>
</svg>
